<svg id="Layer_1" data-name="Layer 1" xmlns="http://www.w3.org/2000/svg" viewBox="0 0 10.97 38.14"><defs><style>.cls-1{fill:#2d2d2d;}</style></defs><path class="cls-1" d="M9.52,32a1,1,0,0,1,1,1h0a1,1,0,0,1-1,1h0a1,1,0,0,1-1-1h0A1,1,0,0,1,9.52,32Zm0-4a1,1,0,0,1,1,1h0a1,1,0,0,1-1,1h0a1,1,0,0,1-1-1h0A1,1,0,0,1,9.52,28Zm0-4a1,1,0,0,1,1,1h0a1,1,0,0,1-1,1h0a1,1,0,0,1-1-1h0A1,1,0,0,1,9.52,24Zm0-4a1,1,0,0,1,1,1h0a1,1,0,0,1-1,1h0a1,1,0,0,1-1-1h0A1,1,0,0,1,9.52,20Z" transform="translate(-4.03 -4)"/><path class="cls-1" d="M9.52,16a1,1,0,0,1,1,1h0a1,1,0,0,1-1,1h0a1,1,0,0,1-1-1h0A1,1,0,0,1,9.52,16Zm0-4a1,1,0,0,1,1,1h0a1,1,0,0,1-1,1h0a1,1,0,0,1-1-1h0A1,1,0,0,1,9.52,12Zm0-4a1,1,0,0,1,1,1h0a1,1,0,0,1-1,1h0a1,1,0,0,1-1-1h0A1,1,0,0,1,9.52,8Zm0-4a1,1,0,0,1,1,1h0a1,1,0,0,1-1,1h0a1,1,0,0,1-1-1h0A1,1,0,0,1,9.52,4Z" transform="translate(-4.03 -4)"/><polygon class="cls-1" points="0 30.82 5.48 38.14 10.97 30.82 0 30.82"/></svg>